<svg xmlns="http://www.w3.org/2000/svg" viewBox="0 0 512 512" id="blog"><path fill="#231f20" d="M397.89 441.11H114.11c-25.83 0-46.85-20.65-46.85-46V116.92c0-25.38 21-46 46.85-46h283.78c25.83 0 46.85 20.65 46.85 46v278.16c0 25.38-21.02 46.03-46.85 46.03ZM114.11 80.71c-20.42 0-37 16.24-37 36.21v278.16c0 20 16.61 36.21 37 36.21h283.78c20.42 0 37-16.24 37-36.21V116.92c0-20-16.61-36.21-37-36.21Z"></path><path fill="#f27046" d="M367.29 241.33c-4.69-2-24.76.22-30.33-4.72-3.94-3.57-4.19-10-5.72-18.63-2.58-14.43-3.65-17.69-6.32-23.37-9.74-20.24-33.08-37.61-54.28-37.61H221.5c-38.66 0-70.25 31-70.25 68.87v80.3c0 37.79 31.59 68.73 70.25 68.73h80.74c38.65 0 70-30.94 70.26-68.73l.44-55.61s0-6.87-5.65-9.26Zm-144.91-28h39a13.14 13.14 0 1 1 0 26.27h-39a13.14 13.14 0 1 1 0-26.27Zm79.19 105h-79.19a13.1 13.1 0 1 1 0-26.2h79.19a13.1 13.1 0 1 1 0 26.2Z"></path><path fill="#231f20" d="M293.46 369.86h-80.74c-41.44 0-75.15-33-75.15-73.64v-80.3c0-40.68 33.71-73.78 75.15-73.78h49.15c22.39 0 47.62 17.35 58.7 40.35 2.95 6.27 4.11 10 6.73 24.64.29 1.63.53 3.19.77 4.67.83 5.28 1.49 9.45 3.41 11.19 2.1 1.86 11.68 2.21 16.83 2.39 6.06.23 9.62.4 12.1 1.44 6.84 2.88 8.66 10 8.66 13.78l-.45 55.64c-.23 40.59-33.95 73.62-75.16 73.62ZM212.72 152c-36 0-65.34 28.69-65.34 64v80.3c0 35.19 29.32 63.82 65.34 63.82h80.74c35.83 0 65.15-28.64 65.36-63.85l.44-55.62s-.14-3.61-2.63-4.69c-1.15-.41-5.5-.57-8.68-.68-10.69-.4-18.6-1-23-4.9-4.53-4.11-5.47-10.07-6.56-17-.22-1.42-.46-2.91-.74-4.47-2.54-14.21-3.53-17.05-5.92-22.14-9.4-19.53-31.3-34.77-49.86-34.77Zm80.08 161.22h-79.19a18 18 0 1 1 0-36h79.19a18 18 0 1 1 0 36ZM213.61 287a8.38 8.38 0 0 0-8.54 8.2 8.48 8.48 0 0 0 8.54 8.19h79.19a8.45 8.45 0 0 0 8.47-8.19 8.35 8.35 0 0 0-8.47-8.2Zm39-52.49h-39a18 18 0 1 1 0-36.09h39a18 18 0 1 1 0 36.09Zm-39-26.27a8.23 8.23 0 1 0 0 16.45h39a8.23 8.23 0 1 0 0-16.45Z"></path></svg>